<svg width="127" height="127" viewBox="0 0 127 127" fill="none" xmlns="http://www.w3.org/2000/svg">
<g id="&#240;&#159;&#166;&#134; icon &#34;Verified Check&#34;">
<path id="Vector" fill-rule="evenodd" clip-rule="evenodd" d="M48.2117 7.62173C46.6654 8.93954 45.8922 9.59855 45.0663 10.152C43.1734 11.4207 41.0475 12.3013 38.8118 12.7427C37.8365 12.9353 36.8238 13.0161 34.7985 13.1777C29.7098 13.5838 27.1653 13.7868 25.0426 14.5366C20.1328 16.2708 16.2708 20.1328 14.5366 25.0426C13.7868 27.1653 13.5838 29.7098 13.1777 34.7985C13.0161 36.8238 12.9353 37.8365 12.7427 38.8118C12.3013 41.0475 11.4207 43.1734 10.152 45.0663C9.59855 45.8922 8.93961 46.6653 7.62173 48.2117C4.31059 52.0973 2.65495 54.0398 1.68416 56.0711C-0.561388 60.7695 -0.561388 66.2305 1.68416 70.9289C2.65501 72.9602 4.31059 74.9027 7.62173 78.7883C8.93942 80.3345 9.59855 81.1079 10.152 81.9334C11.4207 83.8264 12.3013 85.9523 12.7427 88.1882C12.9353 89.1635 13.0161 90.1763 13.1777 92.2014C13.5838 97.2903 13.7868 99.8347 14.5366 101.957C16.2708 106.867 20.1328 110.729 25.0426 112.464C27.1653 113.213 29.7098 113.416 34.7985 113.822C36.8238 113.984 37.8365 114.065 38.8118 114.257C41.0475 114.699 43.1734 115.58 45.0663 116.848C45.8922 117.401 46.6653 118.06 48.2117 119.378C52.0973 122.69 54.0398 124.345 56.0711 125.316C60.7695 127.561 66.2305 127.561 70.9289 125.316C72.9602 124.345 74.9027 122.69 78.7883 119.378C80.3345 118.06 81.1079 117.401 81.9334 116.848C83.8264 115.58 85.9523 114.699 88.1882 114.257C89.1635 114.065 90.1763 113.984 92.2014 113.822C97.2903 113.416 99.8347 113.213 101.957 112.464C106.867 110.729 110.729 106.867 112.464 101.957C113.213 99.8347 113.416 97.2903 113.822 92.2014C113.984 90.1763 114.065 89.1635 114.257 88.1882C114.699 85.9523 115.58 83.8264 116.848 81.9334C117.401 81.1079 118.06 80.3345 119.378 78.7883C122.69 74.9027 124.345 72.9602 125.316 70.9289C127.561 66.2305 127.561 60.7695 125.316 56.0711C124.345 54.0398 122.69 52.0973 119.378 48.2117C118.06 46.6653 117.401 45.8922 116.848 45.0663C115.58 43.1734 114.699 41.0475 114.257 38.8118C114.065 37.8365 113.984 36.8238 113.822 34.7985C113.416 29.7098 113.213 27.1653 112.464 25.0426C110.729 20.1328 106.867 16.2708 101.957 14.5366C99.8347 13.7868 97.2903 13.5838 92.2014 13.1777C90.1763 13.0161 89.1635 12.9353 88.1882 12.7427C85.9523 12.3013 83.8264 11.4207 81.9334 10.152C81.1079 9.59855 80.3345 8.93961 78.7883 7.62173C74.9027 4.31059 72.9602 2.65501 70.9289 1.68416C66.2305 -0.561388 60.7695 -0.561388 56.0711 1.68416C54.0398 2.65495 52.0973 4.31059 48.2117 7.62173ZM91.2717 49.9309C93.2898 47.9127 93.2898 44.6405 91.2717 42.6222C89.2537 40.604 85.9809 40.604 83.9629 42.6222L53.1641 73.4212L43.0369 63.2943C41.0187 61.2762 37.7464 61.2762 35.7282 63.2943C33.71 65.3123 33.71 68.5844 35.7282 70.6031L49.5096 84.3845C51.5277 86.4025 54.7999 86.4025 56.8185 84.3845L91.2717 49.9309Z" fill="#1C4C1E"/>
</g>
</svg>
