
<svg width="33" height="33" viewBox="0 0 33 33" fill="none" xmlns="http://www.w3.org/2000/svg">
<g id="&#240;&#159;&#166;&#134; icon &#34;pending&#34;">
<path id="Vector" d="M16.5 0C7.392 0 0 7.392 0 16.5C0 25.608 7.392 33 16.5 33C25.608 33 33 25.608 33 16.5C33 7.392 25.608 0 16.5 0ZM8.25 18.975C6.8805 18.975 5.775 17.8695 5.775 16.5C5.775 15.1305 6.8805 14.025 8.25 14.025C9.6195 14.025 10.725 15.1305 10.725 16.5C10.725 17.8695 9.6195 18.975 8.25 18.975ZM16.5 18.975C15.1305 18.975 14.025 17.8695 14.025 16.5C14.025 15.1305 15.1305 14.025 16.5 14.025C17.8695 14.025 18.975 15.1305 18.975 16.5C18.975 17.8695 17.8695 18.975 16.5 18.975ZM24.75 18.975C23.3805 18.975 22.275 17.8695 22.275 16.5C22.275 15.1305 23.3805 14.025 24.75 14.025C26.1195 14.025 27.225 15.1305 27.225 16.5C27.225 17.8695 26.1195 18.975 24.75 18.975Z" fill="#F08A5D"/>
</g>
</svg>
